<?xml version="1.0" encoding="UTF-8" standalone="no"?>
<svg
   xmlns:dc="http://purl.org/dc/elements/1.1/"
   xmlns:cc="http://creativecommons.org/ns#"
   xmlns:rdf="http://www.w3.org/1999/02/22-rdf-syntax-ns#"
   xmlns:svg="http://www.w3.org/2000/svg"
   xmlns="http://www.w3.org/2000/svg"
   xmlns:sodipodi="http://sodipodi.sourceforge.net/DTD/sodipodi-0.dtd"
   xmlns:inkscape="http://www.inkscape.org/namespaces/inkscape"
   height="128px"
   viewBox="0 0 128 128"
   width="128px"
   version="1.1"
   id="svg41"
   sodipodi:docname="io.gitlab.hamadmarri.gamma.svg"
   inkscape:version="1.0.1 (3bc2e813f5, 2020-09-07)">
  <metadata
     id="metadata47">
    <rdf:RDF>
      <cc:Work
         rdf:about="">
        <dc:format>image/svg+xml</dc:format>
        <dc:type
           rdf:resource="http://purl.org/dc/dcmitype/StillImage" />
      </cc:Work>
    </rdf:RDF>
  </metadata>
  <defs
     id="defs45" />
  <sodipodi:namedview
     pagecolor="#ffffff"
     bordercolor="#666666"
     borderopacity="1"
     objecttolerance="10"
     gridtolerance="10"
     guidetolerance="10"
     inkscape:pageopacity="0"
     inkscape:pageshadow="2"
     inkscape:window-width="1920"
     inkscape:window-height="1016"
     id="namedview43"
     showgrid="false"
     inkscape:zoom="13.65625"
     inkscape:cx="38.341667"
     inkscape:cy="63.496306"
     inkscape:window-x="0"
     inkscape:window-y="27"
     inkscape:window-maximized="1"
     inkscape:current-layer="svg41" />
  <linearGradient
     id="a"
     gradientUnits="userSpaceOnUse"
     x1="7.9998935"
     x2="119.9998935"
     y1="115.999665"
     y2="115.999665">
    <stop
       offset="0"
       stop-color="#0f0c0c"
       id="stop2" />
    <stop
       offset="0.0357143"
       stop-color="#6d4954"
       id="stop4" />
    <stop
       offset="0.0713653"
       stop-color="#281e22"
       id="stop6" />
    <stop
       offset="0.928571"
       stop-color="#281e22"
       id="stop8" />
    <stop
       offset="0.964286"
       stop-color="#6d4954"
       id="stop10" />
    <stop
       offset="1"
       stop-color="#0f0c0c"
       id="stop12" />
  </linearGradient>
  <path
     d="m 16 40 h 96 c 4.417969 0 8 3.582031 8 8 v 60 c 0 4.417969 -3.582031 8 -8 8 h -96 c -4.417969 0 -8 -3.582031 -8 -8 v -60 c 0 -4.417969 3.582031 -8 8 -8 z m 0 0"
     fill="url(#a)"
     id="path15" />
  <path
     d="m 16 28 h 96 c 4.417969 0 8 3.582031 8 8 v 68 c 0 4.417969 -3.582031 8 -8 8 h -96 c -4.417969 0 -8 -3.582031 -8 -8 v -68 c 0 -4.417969 3.582031 -8 8 -8 z m 0 0"
     fill="#36292d"
     id="path17" />
  <path
     d="m 15.300781 28 c -4.042969 0 -7.300781 3.257812 -7.300781 7.300781 v 69.398438 c 0 4.042969 3.257812 7.300781 7.300781 7.300781 h 32.699219 v -84 z m 0 0"
     fill="#4e3b42"
     id="path19" />
  <path
     d="m 22 60 h 8 v 32 h -8 z m 0 0"
     fill="#36292d"
     id="path21" />
  <path
     d="m 30 60 h 10 v 8 h -10 z m 0 0"
     fill="#36292d"
     id="path23" />
  <path
     d="m 60 40 h 16 c 2.210938 0 4 1.789062 4 4 s -1.789062 4 -4 4 h -16 c -2.210938 0 -4 -1.789062 -4 -4 s 1.789062 -4 4 -4 z m 0 0"
     fill="#ffffff"
     id="path25" />
  <path
     d="m 60 56 h 24 c 2.210938 0 4 1.789062 4 4 s -1.789062 4 -4 4 h -24 c -2.210938 0 -4 -1.789062 -4 -4 s 1.789062 -4 4 -4 z m 0 0"
     fill="#f8e45c"
     id="path27" />
  <path
     d="m 76 72 h 22 c 2.210938 0 4 1.789062 4 4 s -1.789062 4 -4 4 h -22 c -2.210938 0 -4 -1.789062 -4 -4 s 1.789062 -4 4 -4 z m 0 0"
     fill="#ffffff"
     id="path29" />
  <path
     d="m 88 40 h 9 c 2.210938 0 4 1.789062 4 4 s -1.789062 4 -4 4 h -9 c -2.210938 0 -4 -1.789062 -4 -4 s 1.789062 -4 4 -4 z m 0 0"
     fill="#f66151"
     id="path31" />
  <path
     d="m 60 88 h 24 c 2.210938 0 4 1.789062 4 4 s -1.789062 4 -4 4 h -24 c -2.210938 0 -4 -1.789062 -4 -4 s 1.789062 -4 4 -4 z m 0 0"
     fill="#f8e45c"
     id="path33" />
  <g
     fill="#ffa348"
     id="g39">
    <path
       id="path35"
       d="M 22 52 L 22 84 L 30 84 L 30 60 L 40 60 L 40 52 L 30 52 L 22 52 z " />
  </g>
</svg>
