<?xml version="1.0" encoding="UTF-8"?>
<svg height="128px" viewBox="0 0 128 128" width="128px" xmlns="http://www.w3.org/2000/svg" xmlns:xlink="http://www.w3.org/1999/xlink">
    <linearGradient id="a" gradientUnits="userSpaceOnUse" x1="7.9998935" x2="119.9998935" y1="115.999665" y2="115.999665">
        <stop offset="0" stop-color="#0f0c0c"/>
        <stop offset="0.0357143" stop-color="#6d4954"/>
        <stop offset="0.0713653" stop-color="#281e22"/>
        <stop offset="0.928571" stop-color="#281e22"/>
        <stop offset="0.964286" stop-color="#6d4954"/>
        <stop offset="1" stop-color="#0f0c0c"/>
    </linearGradient>
    <path d="m 16 40 h 96 c 4.417969 0 8 3.582031 8 8 v 60 c 0 4.417969 -3.582031 8 -8 8 h -96 c -4.417969 0 -8 -3.582031 -8 -8 v -60 c 0 -4.417969 3.582031 -8 8 -8 z m 0 0" fill="url(#a)"/>
    <path d="m 16 28 h 96 c 4.417969 0 8 3.582031 8 8 v 68 c 0 4.417969 -3.582031 8 -8 8 h -96 c -4.417969 0 -8 -3.582031 -8 -8 v -68 c 0 -4.417969 3.582031 -8 8 -8 z m 0 0" fill="#36292d"/>
    <path d="m 15.300781 28 c -4.042969 0 -7.300781 3.257812 -7.300781 7.300781 v 69.398438 c 0 4.042969 3.257812 7.300781 7.300781 7.300781 h 32.699219 v -84 z m 0 0" fill="#4e3b42"/>
    <path d="m 22 60 h 8 v 32 h -8 z m 0 0" fill="#36292d"/>
    <path d="m 30 60 h 10 v 8 h -10 z m 0 0" fill="#36292d"/>
    <path d="m 60 40 h 16 c 2.210938 0 4 1.789062 4 4 s -1.789062 4 -4 4 h -16 c -2.210938 0 -4 -1.789062 -4 -4 s 1.789062 -4 4 -4 z m 0 0" fill="#ffffff"/>
    <path d="m 60 56 h 24 c 2.210938 0 4 1.789062 4 4 s -1.789062 4 -4 4 h -24 c -2.210938 0 -4 -1.789062 -4 -4 s 1.789062 -4 4 -4 z m 0 0" fill="#f8e45c"/>
    <path d="m 76 72 h 22 c 2.210938 0 4 1.789062 4 4 s -1.789062 4 -4 4 h -22 c -2.210938 0 -4 -1.789062 -4 -4 s 1.789062 -4 4 -4 z m 0 0" fill="#ffffff"/>
    <path d="m 88 40 h 9 c 2.210938 0 4 1.789062 4 4 s -1.789062 4 -4 4 h -9 c -2.210938 0 -4 -1.789062 -4 -4 s 1.789062 -4 4 -4 z m 0 0" fill="#f66151"/>
    <path d="m 60 88 h 24 c 2.210938 0 4 1.789062 4 4 s -1.789062 4 -4 4 h -24 c -2.210938 0 -4 -1.789062 -4 -4 s 1.789062 -4 4 -4 z m 0 0" fill="#f8e45c"/>
    <g fill="#ffa348">
        <path d="m 22 52 h 8 v 32 h -8 z m 0 0"/>
        <path d="m 30 52 h 10 v 8 h -10 z m 0 0"/>
    </g>
</svg>
